<svg width="47" height="27" viewBox="0 0 57 37" fill="none" xmlns="http://www.w3.org/2000/svg">
<path d="M0.56 6.4C0.56 5.30133 0.805333 4.32 1.296 3.456C1.79733 2.58133 2.47467 1.904 3.328 1.424C4.192 0.933333 5.15733 0.688 6.224 0.688C7.472 0.688 8.56533 1.008 9.504 1.648C10.4427 2.288 11.0987 3.17333 11.472 4.304H8.896C8.64 3.77067 8.27733 3.37067 7.808 3.104C7.34933 2.83733 6.816 2.704 6.208 2.704C5.55733 2.704 4.976 2.85867 4.464 3.168C3.96267 3.46667 3.568 3.89333 3.28 4.448C3.00267 5.00267 2.864 5.65333 2.864 6.4C2.864 7.136 3.00267 7.78667 3.28 8.352C3.568 8.90667 3.96267 9.33867 4.464 9.648C4.976 9.94667 5.55733 10.096 6.208 10.096C6.816 10.096 7.34933 9.96267 7.808 9.696C8.27733 9.41867 8.64 9.01333 8.896 8.48H11.472C11.0987 9.62133 10.4427 10.512 9.504 11.152C8.576 11.7813 7.48267 12.096 6.224 12.096C5.15733 12.096 4.192 11.856 3.328 11.376C2.47467 10.8853 1.79733 10.208 1.296 9.344C0.805333 8.48 0.56 7.49867 0.56 6.4ZM20.2333 9.872H15.7853L15.0493 12H12.6973L16.7133 0.815999H19.3213L23.3373 12H20.9693L20.2333 9.872ZM19.6253 8.08L18.0093 3.408L16.3932 8.08H19.6253ZM30.5984 12L28.1344 7.648H27.0784V12H24.8384V0.832H29.0304C29.8944 0.832 30.6304 0.986666 31.2384 1.296C31.8464 1.59467 32.2997 2.00533 32.5984 2.528C32.9077 3.04 33.0624 3.616 33.0624 4.256C33.0624 4.992 32.849 5.65867 32.4224 6.256C31.9957 6.84267 31.361 7.248 30.5184 7.472L33.1904 12H30.5984ZM27.0784 5.968H28.9504C29.5584 5.968 30.0117 5.824 30.3104 5.536C30.609 5.23733 30.7584 4.82667 30.7584 4.304C30.7584 3.792 30.609 3.39733 30.3104 3.12C30.0117 2.832 29.5584 2.688 28.9504 2.688H27.0784V5.968ZM37.3284 10.224H41.0084V12H35.0884V0.832H37.3284V10.224ZM7.616 24.832V32.672C7.616 33.76 7.30133 34.608 6.672 35.216C6.04267 35.8133 5.2 36.112 4.144 36.112C3.07733 36.112 2.21333 35.8027 1.552 35.184C0.901333 34.5653 0.576 33.7013 0.576 32.592H2.816C2.82667 33.072 2.93867 33.4453 3.152 33.712C3.376 33.9787 3.696 34.112 4.112 34.112C4.51733 34.112 4.82667 33.984 5.04 33.728C5.25333 33.472 5.36 33.12 5.36 32.672V24.832H7.616ZM17.077 33.872H12.629L11.893 36H9.541L13.557 24.816H16.165L20.181 36H17.813L17.077 33.872ZM16.469 32.08L14.853 27.408L13.237 32.08H16.469ZM33.8581 24.832V36H31.6181V28.736L28.6261 36H26.9301L23.9221 28.736V36H21.6821V24.832H24.2261L27.7781 33.136L31.3301 24.832H33.8581ZM38.3128 26.64V29.44H42.0728V31.216H38.3128V34.176H42.5528V36H36.0728V24.816H42.5528V26.64H38.3128ZM48.4444 36.112C47.6657 36.112 46.9617 35.9787 46.3324 35.712C45.7137 35.4453 45.223 35.0613 44.8604 34.56C44.4977 34.0587 44.311 33.4667 44.3004 32.784H46.7004C46.7324 33.2427 46.8924 33.6053 47.1804 33.872C47.479 34.1387 47.8844 34.272 48.3964 34.272C48.919 34.272 49.3297 34.1493 49.6284 33.904C49.927 33.648 50.0764 33.3173 50.0764 32.912C50.0764 32.5813 49.975 32.3093 49.7724 32.096C49.5697 31.8827 49.3137 31.7173 49.0044 31.6C48.7057 31.472 48.2897 31.3333 47.7564 31.184C47.031 30.9707 46.439 30.7627 45.9804 30.56C45.5324 30.3467 45.143 30.032 44.8124 29.616C44.4924 29.1893 44.3324 28.624 44.3324 27.92C44.3324 27.2587 44.4977 26.6827 44.8284 26.192C45.159 25.7013 45.623 25.328 46.2204 25.072C46.8177 24.8053 47.5004 24.672 48.2684 24.672C49.4204 24.672 50.3537 24.9547 51.0684 25.52C51.7937 26.0747 52.1937 26.8533 52.2684 27.856H49.8044C49.783 27.472 49.6177 27.1573 49.3084 26.912C49.0097 26.656 48.6097 26.528 48.1084 26.528C47.671 26.528 47.319 26.64 47.0524 26.864C46.7964 27.088 46.6684 27.4133 46.6684 27.84C46.6684 28.1387 46.7644 28.3893 46.9564 28.592C47.159 28.784 47.4044 28.944 47.6924 29.072C47.991 29.1893 48.407 29.328 48.9404 29.488C49.6657 29.7013 50.2577 29.9147 50.7164 30.128C51.175 30.3413 51.5697 30.6613 51.9004 31.088C52.231 31.5147 52.3964 32.0747 52.3964 32.768C52.3964 33.3653 52.2417 33.92 51.9324 34.432C51.623 34.944 51.1697 35.3547 50.5724 35.664C49.975 35.9627 49.2657 36.112 48.4444 36.112ZM55.3304 36.112C54.925 36.112 54.589 35.9893 54.3224 35.744C54.0664 35.488 53.9384 35.1733 53.9384 34.8C53.9384 34.4267 54.0664 34.1173 54.3224 33.872C54.589 33.616 54.925 33.488 55.3304 33.488C55.725 33.488 56.0504 33.616 56.3064 33.872C56.5624 34.1173 56.6904 34.4267 56.6904 34.8C56.6904 35.1733 56.5624 35.488 56.3064 35.744C56.0504 35.9893 55.725 36.112 55.3304 36.112Z" fill="#181818"/>
</svg>
